<?xml version="1.0" encoding="UTF-8"?>
<svg width="206px" height="43px" viewBox="0 0 206 43" version="1.1" xmlns="http://www.w3.org/2000/svg" xmlns:xlink="http://www.w3.org/1999/xlink">
    <title>fiverrr</title>
    <g id="Page-1" stroke="none" stroke-width="1" fill="none" fill-rule="evenodd">
        <g id="fiverrr." transform="translate(0.464844, 0.251953)" fill-rule="nonzero">
            <path d="M28.8574219,12.7734375 C30.9082031,12.7734375 32.3144531,12.8564453 33.0761719,13.0224609 C33.8378906,13.1884766 34.2724609,13.4960938 34.3798828,13.9453125 C34.4873047,14.3945312 34.5410156,15.0292969 34.5410156,15.8496094 L34.5410156,29.7363281 C34.5410156,32.5683594 34.5996094,35.234375 34.7167969,37.734375 L38.1738281,37.734375 C38.5058594,38.3789062 38.671875,39.1015625 38.671875,39.9023438 C38.671875,40.5859375 38.5302734,41.0644531 38.2470703,41.3378906 C37.9638672,41.6113281 37.4121094,41.7480469 36.5917969,41.7480469 L22.5292969,41.7480469 C22.1972656,40.9277344 22.03125,40.15625 22.03125,39.4335938 C22.03125,38.828125 22.1679688,38.3935547 22.4414062,38.1298828 C22.7148437,37.8662109 23.1542969,37.734375 23.7597656,37.734375 L26.1328125,37.734375 C26.25,35.234375 26.3085938,32.5683594 26.3085938,29.7363281 C26.3085938,25.6152344 26.2744141,22.8466797 26.2060547,21.4306641 C26.1376953,20.0146484 25.9814453,18.9794922 25.7373047,18.3251953 C25.4931641,17.6708984 25.1318359,17.2607422 24.6533203,17.0947266 C24.1748047,16.9287109 23.4667969,16.8457031 22.5292969,16.8457031 L12.5683594,16.8457031 L12.5683594,29.7363281 C12.5683594,32.5683594 12.6171875,35.234375 12.7148438,37.734375 L17.0800781,37.734375 C17.4121094,38.3789062 17.578125,39.1015625 17.578125,39.9023438 C17.578125,40.5859375 17.4365234,41.0644531 17.1533203,41.3378906 C16.8701172,41.6113281 16.3183594,41.7480469 15.4980469,41.7480469 L0.52734375,41.7480469 C0.1953125,40.9277344 0.029296875,40.15625 0.029296875,39.4335938 C0.029296875,38.828125 0.166015625,38.3935547 0.439453125,38.1298828 C0.712890625,37.8662109 1.15234375,37.734375 1.7578125,37.734375 L4.16015625,37.734375 C4.2578125,35.234375 4.30664062,32.5683594 4.30664062,29.7363281 L4.30664062,17.1386719 L0.52734375,17.1386719 C0.17578125,16.2988281 0,15.4492188 0,14.5898438 C0,13.9257812 0.131835938,13.4570312 0.395507812,13.1835938 C0.659179688,12.9101563 1.10351562,12.7734375 1.72851563,12.7734375 L4.30664062,12.7734375 C4.42382812,7.98828125 5.64453125,4.66308594 7.96875,2.79785156 C10.2929688,0.932617188 14.5898438,0 20.859375,0 C26.6210938,0 30.3417969,0.288085938 32.0214844,0.864257812 C33.7011719,1.44042969 34.5410156,2.54882812 34.5410156,4.18945312 C34.5410156,6.20117188 33.6621094,7.84179688 31.9042969,9.11132812 C26.1230469,6.22070312 21.6113281,4.77539062 18.3691406,4.77539062 C15.9667969,4.77539062 14.3994141,5.26855469 13.6669922,6.25488281 C12.9345703,7.24121094 12.5683594,9.05273438 12.5683594,11.6894531 L12.5683594,12.7734375 L28.8574219,12.7734375 Z" id="Path" fill="#FFFFFF"></path>
            <path d="M61.6992188,17.109375 C61.3671875,16.4257812 61.2011719,15.703125 61.2011719,14.9414062 C61.2011719,14.1796875 61.3476562,13.6279297 61.640625,13.2861328 C61.9335938,12.9443359 62.421875,12.7734375 63.1054688,12.7734375 L71.9824219,12.7734375 C72.3339844,13.4375 72.5097656,14.140625 72.5097656,14.8828125 C72.5097656,15.7421875 72.34375,16.328125 72.0117188,16.640625 C71.6796875,16.953125 71.09375,17.109375 70.2539062,17.109375 L70.078125,17.109375 C69.4140625,18.5742188 67.9199219,22.6611328 65.5957031,29.3701172 C63.2714844,36.0791016 61.7041016,39.9169922 60.8935547,40.8837891 C60.0830078,41.8505859 58.671875,42.3339844 56.6601562,42.3339844 C53.4960938,42.3339844 51.796875,42.1777344 51.5625,41.8652344 C51.328125,41.5527344 50.2832031,38.3544922 48.4277344,32.2705078 C46.5722656,26.1865234 45.4052734,22.4560547 44.9267578,21.0791016 C44.4482422,19.7021484 44.0673828,18.6865234 43.7841797,18.0322266 C43.5009766,17.3779297 43.1640625,16.9677734 42.7734375,16.8017578 C42.3828125,16.6357422 41.71875,16.5527344 40.78125,16.5527344 C40.4296875,15.6542969 40.2539062,14.8339844 40.2539062,14.0917969 C40.2539062,13.3691406 40.6103516,12.8808594 41.3232422,12.6269531 C42.0361328,12.3730469 44.2773438,12.2460938 48.046875,12.2460938 C49.4921875,12.2460938 50.5126953,12.3632812 51.1083984,12.5976562 C51.7041016,12.8320312 52.1337891,13.2568359 52.3974609,13.8720703 C52.6611328,14.4873047 52.9785156,15.9277344 53.3496094,18.1933594 C53.7207031,20.4589844 54.5361328,23.9550781 55.7958984,28.6816406 C57.0556641,33.4082031 57.8173828,35.7714844 58.0810547,35.7714844 C58.3447266,35.7714844 59.21875,33.0957031 60.703125,27.7441406 C62.1875,22.3925781 63.046875,18.8476562 63.28125,17.109375 L61.6992188,17.109375 Z" id="Path" fill="#FFFFFF"></path>
            <path d="M89.3847656,16.9921875 C87.9394531,16.9921875 86.8359375,17.578125 86.0742188,18.75 C85.3125,19.921875 84.921875,21.9628906 84.9023438,24.8730469 L86.4550781,24.8730469 C88.6230469,24.8730469 90.2783203,24.8095703 91.4208984,24.6826172 C92.5634766,24.5556641 93.2324219,24.3408203 93.4277344,24.0380859 C93.6230469,23.7353516 93.7207031,23.2324219 93.7207031,22.5292969 C93.7207031,20.7714844 93.3398438,19.4091797 92.578125,18.4423828 C91.8164062,17.4755859 90.7519531,16.9921875 89.3847656,16.9921875 Z M90.5566406,11.9238281 C94.6191406,11.9238281 97.5683594,12.8466797 99.4042969,14.6923828 C101.240234,16.5380859 102.158203,19.453125 102.158203,23.4375 C102.158203,25.4101562 101.767578,26.8164062 100.986328,27.65625 C100.205078,28.4960938 98.4960938,28.9160156 95.859375,28.9160156 L84.9609375,28.9160156 C85.0195312,31.4746094 85.5957031,33.4814453 86.6894531,34.9365234 C87.7832031,36.3916016 89.7070312,37.1191406 92.4609375,37.1191406 C95.15625,37.1191406 97.9296875,36.3378906 100.78125,34.7753906 C101.796875,35.7714844 102.304688,36.8457031 102.304688,37.9980469 C102.304688,39.5605469 101.157227,40.6494141 98.8623047,41.2646484 C96.5673828,41.8798828 93.8769531,42.1875 90.7910156,42.1875 C85.4785156,42.1875 81.6210938,41.1132812 79.21875,38.9648438 C76.8164062,36.8164062 75.6152344,33.2714844 75.6152344,28.3300781 C75.6152344,23.1933594 76.9677734,19.1748047 79.6728516,16.2744141 C82.3779297,13.3740234 86.0058594,11.9238281 90.5566406,11.9238281 Z" id="Shape" fill="#FFFFFF"></path>
            <path d="M106.611328,14.2089844 C106.611328,13.5058594 106.870117,13.046875 107.387695,12.8320312 C107.905273,12.6171875 111.132812,12.421875 117.070312,12.2460938 C117.167969,13.0664062 117.167969,14.1992188 117.070312,15.6445312 C119.53125,14.1992188 121.757812,13.2226562 123.75,12.7148438 C125.742188,12.2070312 127.5,11.953125 129.023438,11.953125 C129.726562,11.953125 130.195312,12.0361328 130.429688,12.2021484 C130.664062,12.3681641 130.78125,12.7539062 130.78125,13.359375 C130.78125,14.4335938 130.620117,15.5517578 130.297852,16.7138672 C129.975586,17.8759766 129.575195,18.6230469 129.09668,18.9550781 C128.618164,19.2871094 127.861328,19.53125 126.826172,19.6875 C125.791016,19.84375 125.19043,19.8828125 125.024414,19.8046875 C124.858398,19.7265625 124.306641,19.0722656 123.369141,17.8417969 C121.923828,17.8417969 120.81543,18.3642578 120.043945,19.4091797 C119.272461,20.4541016 118.886719,23.1445312 118.886719,27.4804688 C118.886719,31.4453125 118.935547,34.8632812 119.033203,37.734375 L123.632812,37.734375 C123.984375,38.3789062 124.160156,39.1015625 124.160156,39.9023438 C124.160156,40.5859375 124.018555,41.0644531 123.735352,41.3378906 C123.452148,41.6113281 122.900391,41.7480469 122.080078,41.7480469 L107.138672,41.7480469 C106.787109,40.9277344 106.611328,40.15625 106.611328,39.4335938 C106.611328,38.828125 106.748047,38.3935547 107.021484,38.1298828 C107.294922,37.8662109 107.734375,37.734375 108.339844,37.734375 L110.478516,37.734375 C110.576172,34.8632812 110.625,31.5332031 110.625,27.7441406 C110.625,22.2753906 110.366211,19.0429688 109.848633,18.046875 C109.331055,17.0507812 108.427734,16.5527344 107.138672,16.5527344 C106.787109,15.7714844 106.611328,14.9902344 106.611328,14.2089844 Z" id="Path" fill="#FFFFFF"></path>
            <path d="M133.886719,14.2089844 C133.886719,13.5058594 134.145508,13.046875 134.663086,12.8320312 C135.180664,12.6171875 138.408203,12.421875 144.345703,12.2460938 C144.443359,13.0664062 144.443359,14.1992188 144.345703,15.6445312 C146.806641,14.1992188 149.033203,13.2226562 151.025391,12.7148438 C153.017578,12.2070312 154.775391,11.953125 156.298828,11.953125 C157.001953,11.953125 157.470703,12.0361328 157.705078,12.2021484 C157.939453,12.3681641 158.056641,12.7539062 158.056641,13.359375 C158.056641,14.4335938 157.895508,15.5517578 157.573242,16.7138672 C157.250977,17.8759766 156.850586,18.6230469 156.37207,18.9550781 C155.893555,19.2871094 155.136719,19.53125 154.101562,19.6875 C153.066406,19.84375 152.46582,19.8828125 152.299805,19.8046875 C152.133789,19.7265625 151.582031,19.0722656 150.644531,17.8417969 C149.199219,17.8417969 148.09082,18.3642578 147.319336,19.4091797 C146.547852,20.4541016 146.162109,23.1445312 146.162109,27.4804688 C146.162109,31.4453125 146.210938,34.8632812 146.308594,37.734375 L150.908203,37.734375 C151.259766,38.3789062 151.435547,39.1015625 151.435547,39.9023438 C151.435547,40.5859375 151.293945,41.0644531 151.010742,41.3378906 C150.727539,41.6113281 150.175781,41.7480469 149.355469,41.7480469 L134.414062,41.7480469 C134.0625,40.9277344 133.886719,40.15625 133.886719,39.4335938 C133.886719,38.828125 134.023438,38.3935547 134.296875,38.1298828 C134.570312,37.8662109 135.009766,37.734375 135.615234,37.734375 L137.753906,37.734375 C137.851562,34.8632812 137.900391,31.5332031 137.900391,27.7441406 C137.900391,22.2753906 137.641602,19.0429688 137.124023,18.046875 C136.606445,17.0507812 135.703125,16.5527344 134.414062,16.5527344 C134.0625,15.7714844 133.886719,14.9902344 133.886719,14.2089844 Z" id="Path" fill="#FFFFFF"></path>
            <path d="M161.162109,14.2089844 C161.162109,13.5058594 161.420898,13.046875 161.938477,12.8320312 C162.456055,12.6171875 165.683594,12.421875 171.621094,12.2460938 C171.71875,13.0664062 171.71875,14.1992188 171.621094,15.6445312 C174.082031,14.1992188 176.308594,13.2226562 178.300781,12.7148438 C180.292969,12.2070312 182.050781,11.953125 183.574219,11.953125 C184.277344,11.953125 184.746094,12.0361328 184.980469,12.2021484 C185.214844,12.3681641 185.332031,12.7539062 185.332031,13.359375 C185.332031,14.4335938 185.170898,15.5517578 184.848633,16.7138672 C184.526367,17.8759766 184.125977,18.6230469 183.647461,18.9550781 C183.168945,19.2871094 182.412109,19.53125 181.376953,19.6875 C180.341797,19.84375 179.741211,19.8828125 179.575195,19.8046875 C179.40918,19.7265625 178.857422,19.0722656 177.919922,17.8417969 C176.474609,17.8417969 175.366211,18.3642578 174.594727,19.4091797 C173.823242,20.4541016 173.4375,23.1445312 173.4375,27.4804688 C173.4375,31.4453125 173.486328,34.8632812 173.583984,37.734375 L178.183594,37.734375 C178.535156,38.3789062 178.710938,39.1015625 178.710938,39.9023438 C178.710938,40.5859375 178.569336,41.0644531 178.286133,41.3378906 C178.00293,41.6113281 177.451172,41.7480469 176.630859,41.7480469 L161.689453,41.7480469 C161.337891,40.9277344 161.162109,40.15625 161.162109,39.4335938 C161.162109,38.828125 161.298828,38.3935547 161.572266,38.1298828 C161.845703,37.8662109 162.285156,37.734375 162.890625,37.734375 L165.029297,37.734375 C165.126953,34.8632812 165.175781,31.5332031 165.175781,27.7441406 C165.175781,22.2753906 164.916992,19.0429688 164.399414,18.046875 C163.881836,17.0507812 162.978516,16.5527344 161.689453,16.5527344 C161.337891,15.7714844 161.162109,14.9902344 161.162109,14.2089844 Z" id="Path" fill="#FFFFFF"></path>
            <path d="M199.951172,42.3339844 C198.056641,42.3339844 196.669922,41.9775391 195.791016,41.2646484 C194.912109,40.5517578 194.472656,39.5214844 194.472656,38.1738281 C194.472656,36.8261719 194.956055,35.8007812 195.922852,35.0976562 C196.889648,34.3945312 198.232422,34.0429688 199.951172,34.0429688 C201.845703,34.0429688 203.232422,34.3945312 204.111328,35.0976562 C204.990234,35.8007812 205.429688,36.8261719 205.429688,38.1738281 C205.429688,39.5214844 204.946289,40.5517578 203.979492,41.2646484 C203.012695,41.9775391 201.669922,42.3339844 199.951172,42.3339844 Z" id="Path" fill="#1CBF73"></path>
        </g>
    </g>
</svg>